<svg version="1.2" xmlns="http://www.w3.org/2000/svg" viewBox="0 0 512 512" width="85" height="85"><style>.a{fill:#b38867}</style><path fill-rule="evenodd" class="a" d="m254.5 0.1c13.6-0.1 25.4 0.4 33.5 1.4 6.9 0.9 16.8 2.5 22 3.6 5.2 1.2 14.7 3.7 21 5.6 6.3 1.9 16.4 5.5 22.5 7.9 6.1 2.5 15.7 7 21.5 10.1 5.8 3 15.4 8.7 21.5 12.7 6.1 4 15.5 10.9 21 15.3 5.5 4.4 15.4 13.6 22 20.4 6.7 6.8 15 16.2 18.7 20.9 3.6 4.7 9.5 13 13.1 18.5 3.5 5.5 8.5 13.8 11 18.5 2.5 4.7 6.8 13.7 9.5 20 2.7 6.3 6.6 16.7 8.6 23 2 6.3 4.7 16.4 6.1 22.5 1.3 6.1 3.1 16.6 4 23.5 0.9 7.3 1.5 20.5 1.5 32 0 11.6-0.6 24.6-1.5 32-0.9 6.9-2.5 16.8-3.6 22-1.2 5.2-3.7 14.7-5.6 21-1.9 6.3-5.5 16.4-7.9 22.5-2.5 6.1-7 15.7-10.1 21.5-3 5.8-8.4 15-12 20.5-3.6 5.5-9.5 13.8-13.1 18.5-3.7 4.7-12 14.1-18.7 20.9-6.6 6.8-16.5 16-22 20.4-5.5 4.4-14.9 11.3-21 15.3-6.1 4-15.7 9.7-21.5 12.7-5.8 3.1-15.4 7.6-21.5 10.1-6.1 2.4-16.2 6-22.5 7.9-6.3 1.9-15.8 4.4-21 5.6-5.2 1.1-15.1 2.7-22 3.6-7.4 0.9-20.4 1.5-32 1.5-10.7 0-23.6-0.5-28.5-1.1-4.9-0.5-13.7-1.9-19.5-2.9-5.8-1.1-15.4-3.4-21.5-5.1-6.1-1.7-15.3-4.6-20.5-6.6-5.2-1.9-15.8-6.6-23.5-10.3-7.7-3.8-19.4-10.4-26-14.7-6.6-4.4-16.5-11.6-22-16-5.5-4.4-15.4-13.6-22-20.4-6.7-6.8-15-16.2-18.7-20.9-3.6-4.7-9.5-13-13.1-18.5-3.6-5.5-9-14.7-12-20.5-3.1-5.8-7.6-15.4-10.1-21.5-2.4-6.1-6.1-16.4-8.1-23-2-6.6-4.7-17.4-6-24-1.3-6.6-2.9-16.9-3.5-23-0.8-6.9-1-19.7-0.7-34.5 0.4-18.1 1-26.4 2.7-36 1.2-6.9 3.7-17.9 5.5-24.5 1.8-6.6 4.9-16.5 7-22 2-5.5 6.7-16.3 10.5-24 3.8-7.7 10.4-19.4 14.8-26 4.3-6.6 11.5-16.5 15.9-22 4.4-5.5 13.6-15.4 20.4-22 6.8-6.7 16.2-15 20.9-18.7 4.7-3.6 13-9.5 18.5-13.1 5.5-3.6 14.7-9 20.5-12 5.8-3.1 15.4-7.6 21.5-10.1 6.1-2.4 16.2-6 22.5-7.9 6.3-2 16.2-4.5 22-5.7 5.8-1.2 15-2.8 20.5-3.5 5.5-0.7 19.4-1.3 31-1.4zm-35 68.3c-4.4 0.9-9.8 2.1-12 2.7-2.2 0.6-6.9 2-10.5 3.1-3.6 1.1-11.2 4-17 6.5-5.8 2.4-14.3 6.7-19 9.5-4.7 2.8-11.2 7-14.5 9.2-3.3 2.2-9.8 7.3-14.5 11.2-4.7 3.9-11.6 10.4-15.4 14.5-3.7 4.1-9.2 10.6-12.1 14.4-2.8 3.8-7.5 10.6-10.2 15-2.8 4.4-6.9 11.8-9.3 16.5-2.4 4.7-5.6 12.1-7.2 16.5-1.7 4.4-3.4 9.3-3.8 11-0.5 1.7-1.6 5.5-2.4 8.5-0.9 3-2.4 9.6-3.3 14.5-1.4 7.2-1.8 14.2-1.8 34.5 0 22.5 0.3 26.7 2.2 36 1.2 5.8 3 13 3.9 16 0.9 3 2.2 7 3 8.7 0.8 1.8 1.4 4 1.4 4.8 0 0.8 2.6 7 5.8 13.8 3.2 6.7 8.2 16 11.2 20.7 2.9 4.7 8.1 12.1 11.4 16.5 3.4 4.4 8.8 10.9 12.1 14.4 3.3 3.5 9.8 9.6 14.5 13.5 4.7 3.9 11.2 9 14.5 11.2 3.3 2.2 9.8 6.4 14.5 9.2 4.7 2.8 13.2 7.1 19 9.5 5.8 2.5 13.7 5.4 17.5 6.6 3.8 1.2 8.3 2.6 10 3.1 1.7 0.5 8.2 1.9 14.5 3.1 10 2 14.6 2.3 34.5 2.2 20.6 0 24.3-0.3 35.5-2.6 6.9-1.4 16.8-3.9 22-5.6 5.2-1.7 14-5 19.5-7.4 5.5-2.4 14.7-7.3 20.5-10.8 5.8-3.5 14.3-9.3 19-12.9 4.7-3.5 12.6-10.5 17.5-15.5 5-4.9 12-12.8 15.5-17.4 3.6-4.6 7.9-10.7 9.7-13.5 1.8-2.8 5.3-8.9 8-13.6 2.6-4.7 6.2-12.1 8.1-16.5 1.9-4.4 3.8-9.4 4.3-11 0.4-1.6 1.6-5.5 2.5-8.5 0.9-3 2.3-8.2 3-11.5 0.8-3.3 2.1-10.1 3-15 1-6 1.6-15.3 1.6-28 0-12.7-0.6-22-1.6-28-0.9-4.9-2.2-11.7-3-15-0.7-3.3-2.1-8.5-3-11.5-0.9-3-2.1-6.8-2.5-8.5-0.5-1.7-2.4-6.6-4.3-11-1.9-4.4-5.5-11.8-8.1-16.5-2.7-4.7-6.2-10.8-8-13.6-1.8-2.8-6.1-8.9-9.7-13.5-3.5-4.6-10.5-12.5-15.5-17.4-4.9-5-12.8-12-17.5-15.5-4.7-3.6-13.2-9.4-19-12.9-5.8-3.5-15-8.4-20.5-10.8-5.5-2.4-14.3-5.7-19.5-7.4-5.2-1.7-14-3.9-19.5-5-5.5-1.1-14.9-2.5-21-3-6.1-0.5-14.8-0.8-19.5-0.7-4.7 0-12.6 0.4-17.5 0.8-4.9 0.4-12.6 1.5-17 2.4zm36.8 64.6c5 0 6.1 0.4 9.3 3.3 2 1.7 4.3 4.4 5 6 1.1 2.2 1.4 13.4 1.4 59.7 0 40.1-0.3 57.7-1.1 59.3-0.6 1.2-2.5 3.7-4.3 5.5-1.7 1.8-4.8 3.7-6.8 4.2-2.6 0.7-5.1 0.6-8-0.2-3.6-1-8-4.9-28.6-25.2-17.5-17.4-24.7-25.2-25.8-28.1-1.1-2.6-1.4-5.2-1-7.5 0.4-1.9 1.8-5 3.1-6.7 1.4-1.8 4-4.2 5.8-5.3 1.8-1.1 5-2 7.2-2 2.7 0 5.4 0.9 8.5 2.9 2.5 1.6 7.4 5.8 11 9.5 3.6 3.6 6.8 6.6 7.3 6.6 0.4 0 0.7-15.7 0.7-35 0-32.1 0.2-35.3 1.9-38.7 1-2.1 3.3-4.8 5.2-6 2.5-1.7 4.9-2.3 9.2-2.3z"/></svg>